<svg width="17" height="18" viewBox="0 0 17 18" fill="none" xmlns="http://www.w3.org/2000/svg">
    <path d="M14.1148 6.68344C14.1212 5.7488 13.8774 4.82947 13.4086 4.02089C12.9397 3.21231 12.263 2.54396 11.4487 2.08521C10.6344 1.62647 9.71208 1.39406 8.7776 1.41211C7.84311 1.43016 6.93049 1.69802 6.13448 2.18787C5.33846 2.67773 4.68808 3.37172 4.25085 4.1978C3.81361 5.02389 3.60546 5.95195 3.64801 6.88564C3.69055 7.81933 3.98225 8.72462 4.4928 9.50751C5.40451 10.9055 5.94428 11.4195 5.94428 13.0832C5.94428 13.2375 6.00558 13.3855 6.11469 13.4946C6.2238 13.6037 6.37178 13.665 6.52608 13.665H11.2311C11.3854 13.665 11.5334 13.6037 11.6425 13.4946C11.7516 13.3855 11.8129 13.2375 11.8129 13.0832C11.8129 11.3794 12.4167 10.8736 13.3224 9.42447C13.8363 8.60226 14.1107 7.65303 14.1148 6.68344Z" fill="#BFDBFE" stroke="#2563EB" stroke-width="2" stroke-linecap="round" stroke-linejoin="round"/>
    <path d="M7.28125 16.5898L10.4745 16.5898" stroke="#2563EB" stroke-width="2" stroke-linecap="round" stroke-linejoin="round"/>
</svg>
