<svg width="32" height="32" viewBox="0 0 32 32" fill="none" xmlns="http://www.w3.org/2000/svg">
    <rect width="32" height="32" rx="8" fill="white"/>
    <path d="M27.2969 4.70312H28V4H27.2969C26.7153 4 26.2422 4.51379 26.2422 5.14551V10.2401C24.809 9.24744 23.0464 8.95685 21.4214 9.35455L18.6971 6.43402C18.3533 6.06525 17.8669 5.86127 17.3636 5.87592L14.4691 5.95483C13.5579 5.97992 12.6501 6.21796 11.8439 6.64331L8.11438 8.61115C7.82947 8.76166 7.50812 8.84131 7.18512 8.84131L6.61694 8.84149V7.98712H4V8.69025H5.91382V16.4246H4V17.1277H6.61694V16.2732L7.45703 16.273C7.77948 16.273 8.08801 16.3728 8.34949 16.5616L10.2031 17.9014C10.9913 18.471 11.9257 18.7682 12.8762 18.7682C13.2532 18.7682 13.633 18.7215 14.0067 18.6263L17.4584 17.7479C17.7487 18.3536 18.1385 18.9033 18.6204 19.3851C19.7842 20.5489 21.315 21.1357 22.8487 21.1357C24.0345 21.1357 25.2219 20.7845 26.2422 20.0779V23.2453C26.2422 23.8768 26.7153 24.3906 27.2969 24.3906H28V23.6875H27.2969C27.1063 23.6875 26.9453 23.485 26.9453 23.2453V5.14551C26.9453 4.90564 27.1063 4.70312 27.2969 4.70312ZM13.8333 17.9449C12.7195 18.2282 11.5463 18.0046 10.6149 17.3315L8.76129 15.9918C8.37915 15.7156 7.92816 15.5699 7.45685 15.5699L6.61694 15.5701V9.54462L7.18512 9.54443C7.62219 9.54443 8.05707 9.43658 8.44269 9.23297L12.1718 7.26514C12.8834 6.88995 13.6844 6.67993 14.4885 6.65759L17.383 6.57867C17.6851 6.57025 17.9768 6.6922 18.183 6.91357L20.6783 9.58875C20.0538 9.83154 19.4625 10.1826 18.9337 10.6412L17.5809 9.59314C17.301 9.37689 16.9406 9.28442 16.5922 9.33899L14.7532 9.62701C14.3118 9.69586 13.9434 9.98206 13.7676 10.3928L12.8506 12.5322C12.6277 13.0516 12.7662 13.6486 13.1952 14.0181L14.1975 14.8792C14.5119 15.1498 14.9404 15.2529 15.3434 15.1546L17.4145 14.65C17.8098 14.5536 18.2176 14.6679 18.5054 14.9559C18.6428 15.0933 18.744 15.2652 18.798 15.4534C18.8852 15.7563 18.8467 16.0736 18.6898 16.347C18.5329 16.6204 18.2782 16.8139 17.9726 16.8915L13.8333 17.9449ZM18.426 11.1375C17.68 11.9556 17.1829 12.9473 16.9765 14.0331L15.1768 14.4714C14.9937 14.5163 14.799 14.4694 14.656 14.3462L13.6535 13.4849C13.4585 13.317 13.3953 13.0454 13.4968 12.8094L14.4139 10.6696C14.4938 10.483 14.6611 10.353 14.8618 10.3217L16.7013 10.0337C16.8593 10.0086 17.0234 10.0509 17.1506 10.1492L18.426 11.1375ZM26.2422 19.1934C24.159 20.9515 21.059 20.8292 19.1176 18.8879C18.7261 18.4965 18.4036 18.0544 18.1553 17.5703C18.6428 17.4438 19.0489 17.134 19.2996 16.6969C19.5521 16.2571 19.6138 15.7464 19.4737 15.2592C19.3869 14.9568 19.2239 14.68 19.0026 14.4586C18.6547 14.1107 18.1976 13.9205 17.7221 13.9133C17.9482 12.9742 18.4249 12.1229 19.1176 11.4302C21.059 9.48877 24.1588 9.36646 26.2422 11.1246V19.1934Z" fill="#2563EB"/>
    <path d="M21.0859 18.1797H21.7891V15.9062H23.2656C24.2608 15.9062 25.0703 15.0967 25.0703 14.1016C25.0703 13.1064 24.2608 12.2969 23.2656 12.2969H21.0859V18.1797ZM21.7891 13H23.2656C23.873 13 24.3672 13.4942 24.3672 14.1016C24.3672 14.7089 23.873 15.2031 23.2656 15.2031H21.7891V13Z" fill="#2563EB"/>
    <path d="M12.7188 19.9844H13.4219V20.6875H12.7188V19.9844Z" fill="#2563EB"/>
    <path d="M15.5312 19.9844H16.2344V20.6875H15.5312V19.9844Z" fill="#2563EB"/>
    <path d="M14.125 19.9844H14.8281V20.6875H14.125V19.9844Z" fill="#2563EB"/>
    <path d="M12.7188 21.8594H13.4219V22.5625H12.7188V21.8594Z" fill="#2563EB"/>
    <path d="M14.125 21.8594H14.8281V22.5625H14.125V21.8594Z" fill="#2563EB"/>
    <path d="M11.3125 21.8594H12.0156V22.5625H11.3125V21.8594Z" fill="#2563EB"/>
    <path d="M9.04181 9.71161L9.66364 9.38348L9.99176 10.0053L9.36993 10.3334L9.04181 9.71161Z" fill="#2563EB"/>
    <path d="M10.2856 9.05518L12.2293 8.0296L12.5574 8.65143L10.6138 9.677L10.2856 9.05518Z" fill="#2563EB"/>
    <path d="M4.49219 15.0391H5.19531V15.7422H4.49219V15.0391Z" fill="#2563EB"/>
    <path d="M23.699 19.6502C24.3974 19.5184 25.0643 19.2195 25.6273 18.7865L25.1985 18.2291C24.7226 18.5953 24.159 18.8478 23.5687 18.9594L23.699 19.6502Z" fill="#2563EB"/>
    <path d="M22.7582 19.0256C22.6004 19.022 22.4411 19.0084 22.2853 18.9857L22.1835 19.6813C22.3677 19.7083 22.5555 19.7242 22.7416 19.7286C22.7773 19.7293 22.8128 19.7297 22.8483 19.7297C22.8798 19.7297 22.9111 19.7295 22.9426 19.7288L22.9282 19.0258C22.8716 19.0269 22.815 19.0269 22.7582 19.0256Z" fill="#2563EB"/>
    <rect x="3.5" y="3.5" width="25" height="25" rx="4.5" stroke="#2563EB"/>
</svg>
