<svg xmlns="http://www.w3.org/2000/svg" display="none">

    <symbol id="search" viewBox="0 0 24 24">
        <path d="M21 21L16.65 16.65M19 11C19 15.4183 15.4183 19 11 19C6.58172 19 3 15.4183 3 11C3 6.58172 6.58172 3 11 3C15.4183 3 19 6.58172 19 11Z"
              stroke-width="2" stroke-linecap="round" stroke-linejoin="round"/>
    </symbol>


    <symbol id="burger" viewBox="0 0 24 24">
        <path d="M3 12H17M3 6H21M3 18H21" stroke-width="2" stroke-linecap="round"
              stroke-linejoin="round"/>
    </symbol>

    <symbol id="phone" viewBox="0 0 24 24">
        <path d="M22 16.92V19.92C22.0011 20.1985 21.9441 20.4741 21.8325 20.7293C21.7209 20.9845 21.5573 21.2136 21.3521 21.4018C21.1468 21.5901 20.9046 21.7335 20.6407 21.8227C20.3769 21.9119 20.0974 21.945 19.82 21.92C16.7428 21.5856 13.787 20.5341 11.19 18.85C8.77382 17.3146 6.72533 15.2661 5.18999 12.85C3.49997 10.2412 2.44824 7.27097 2.11999 4.17997C2.095 3.90344 2.12787 3.62474 2.21649 3.3616C2.30512 3.09846 2.44756 2.85666 2.63476 2.6516C2.82196 2.44653 3.0498 2.28268 3.30379 2.1705C3.55777 2.05831 3.83233 2.00024 4.10999 1.99997H7.10999C7.5953 1.9952 8.06579 2.16705 8.43376 2.48351C8.80173 2.79996 9.04207 3.23942 9.10999 3.71997C9.23662 4.68004 9.47144 5.6227 9.80999 6.52997C9.94454 6.8879 9.97366 7.27689 9.8939 7.65086C9.81415 8.02482 9.62886 8.36809 9.35999 8.63998L8.08999 9.90997C9.51355 12.4135 11.5864 14.4864 14.09 15.91L15.36 14.64C15.6319 14.3711 15.9751 14.1858 16.3491 14.1061C16.7231 14.0263 17.1121 14.0554 17.47 14.19C18.3773 14.5285 19.3199 14.7634 20.28 14.89C20.7658 14.9585 21.2094 15.2032 21.5265 15.5775C21.8437 15.9518 22.0122 16.4296 22 16.92Z"
              stroke-width="2" stroke-linecap="round" stroke-linejoin="round"/>
    </symbol>

    <symbol id="arrow-top" viewBox="0 0 34 18">
        <path d="M32 16.5L17 1.5L2 16.5" stroke-width="3" stroke-linecap="round"
              stroke-linejoin="round"/>
    </symbol>

    <symbol id="ok" viewBox="0 0 32 32">
        <path d="M16 16.6399C13.184 16.6399 10.88 14.3359 10.88 11.5199C10.88 8.7039 13.184 6.3999 16 6.3999C18.816 6.3999 21.12 8.7039 21.12 11.5199C21.12 14.3359 18.816 16.6399 16 16.6399ZM16 8.8319C14.528 8.8319 13.312 10.0479 13.312 11.5199C13.312 12.9919 14.528 14.2079 16 14.2079C17.472 14.2079 18.688 12.9919 18.688 11.5199C18.688 10.0479 17.472 8.8319 16 8.8319Z"/>
        <path d="M21.504 17.1521C21.056 16.5761 20.288 16.5121 19.712 16.8961C19.712 16.8961 18.304 17.9201 16 17.9201C13.696 17.9201 12.288 16.8961 12.288 16.8961C11.712 16.4481 10.944 16.5761 10.496 17.1521C10.048 17.7281 10.176 18.4961 10.752 18.9441C10.816 19.0081 12.16 20.0321 14.4 20.3521L11.008 23.8081C10.496 24.3201 10.496 25.1521 11.008 25.6001C11.264 25.8561 11.584 25.9841 11.904 25.9841C12.224 25.9841 12.544 25.8561 12.8 25.6001L16 22.3361L19.2 25.6001C19.456 25.8561 19.776 25.9841 20.096 25.9841C20.416 25.9841 20.736 25.8561 20.992 25.6001C21.504 25.0881 21.504 24.3201 20.992 23.8081L17.6 20.3521C19.84 19.9681 21.184 18.9441 21.248 18.9441C21.824 18.4961 21.952 17.6641 21.504 17.1521Z"/>
    </symbol>

    <symbol id="youtube" viewBox="0 0 32 32">
        <path d="M25.408 11.904C25.408 11.904 25.216 10.56 24.64 9.98396C23.936 9.21596 23.104 9.21596 22.72 9.15196C20.032 8.95996 16 8.95996 16 8.95996C16 8.95996 11.968 8.95996 9.28002 9.15196C8.89602 9.21596 8.06402 9.21596 7.36002 9.98396C6.78402 10.56 6.59202 11.904 6.59202 11.904C6.59202 11.904 6.40002 13.44 6.40002 14.976V16.384C6.40002 17.92 6.59202 19.52 6.59202 19.52C6.59202 19.52 6.78402 20.864 7.36002 21.44C8.06402 22.208 9.02402 22.208 9.47202 22.272C11.008 22.336 16 22.4 16 22.4C16 22.4 20.032 22.4 22.72 22.208C23.104 22.144 23.936 22.144 24.64 21.376C25.216 20.8 25.408 19.456 25.408 19.456C25.408 19.456 25.6 17.92 25.6 16.384V14.976C25.6 13.44 25.408 11.904 25.408 11.904ZM14.016 18.176V12.8L19.2 15.488L14.016 18.176Z"/>
    </symbol>

    <symbol id="mail" viewBox="0 0 24 24">
        <path d="M22 6C22 4.9 21.1 4 20 4H4C2.9 4 2 4.9 2 6M22 6V18C22 19.1 21.1 20 20 20H4C2.9 20 2 19.1 2 18V6M22 6L12 13L2 6"
              stroke-width="2" stroke-linecap="round" stroke-linejoin="round"/>
    </symbol>

    <symbol id="tg" viewBox="0 0 24 24">
        <path d="M21 5L2 12.5L9 13.5M21 5L18.5 20L9 13.5M21 5L9 13.5M9 13.5V19L12.249 15.723"
              stroke-width="1.5" stroke-linecap="round" stroke-linejoin="round"/>
    </symbol>

</svg>