<svg xmlns="http://www.w3.org/2000/svg" display="none">

    <symbol id="search" viewBox="0 0 24 24">
        <path d="M21 21L16.65 16.65M19 11C19 15.4183 15.4183 19 11 19C6.58172 19 3 15.4183 3 11C3 6.58172 6.58172 3 11 3C15.4183 3 19 6.58172 19 11Z"
              stroke-width="2" stroke-linecap="round" stroke-linejoin="round"/>
    </symbol>

    <symbol id="burger" viewBox="0 0 24 24">
        <path d="M3 12H17M3 6H21M3 18H21" stroke-width="2" stroke-linecap="round"
              stroke-linejoin="round"/>
    </symbol>

    <symbol id="phone" viewBox="0 0 24 24">
        <path d="M22 16.92V19.92C22.0011 20.1985 21.9441 20.4741 21.8325 20.7293C21.7209 20.9845 21.5573 21.2136 21.3521 21.4018C21.1468 21.5901 20.9046 21.7335 20.6407 21.8227C20.3769 21.9119 20.0974 21.945 19.82 21.92C16.7428 21.5856 13.787 20.5341 11.19 18.85C8.77382 17.3146 6.72533 15.2661 5.18999 12.85C3.49997 10.2412 2.44824 7.27097 2.11999 4.17997C2.095 3.90344 2.12787 3.62474 2.21649 3.3616C2.30512 3.09846 2.44756 2.85666 2.63476 2.6516C2.82196 2.44653 3.0498 2.28268 3.30379 2.1705C3.55777 2.05831 3.83233 2.00024 4.10999 1.99997H7.10999C7.5953 1.9952 8.06579 2.16705 8.43376 2.48351C8.80173 2.79996 9.04207 3.23942 9.10999 3.71997C9.23662 4.68004 9.47144 5.6227 9.80999 6.52997C9.94454 6.8879 9.97366 7.27689 9.8939 7.65086C9.81415 8.02482 9.62886 8.36809 9.35999 8.63998L8.08999 9.90997C9.51355 12.4135 11.5864 14.4864 14.09 15.91L15.36 14.64C15.6319 14.3711 15.9751 14.1858 16.3491 14.1061C16.7231 14.0263 17.1121 14.0554 17.47 14.19C18.3773 14.5285 19.3199 14.7634 20.28 14.89C20.7658 14.9585 21.2094 15.2032 21.5265 15.5775C21.8437 15.9518 22.0122 16.4296 22 16.92Z"
              stroke-width="2" stroke-linecap="round" stroke-linejoin="round"/>
    </symbol>

    <symbol id="arrow-top" viewBox="0 0 34 18">
        <path d="M32 16.5L17 1.5L2 16.5" stroke-width="3" stroke-linecap="round"
              stroke-linejoin="round"/>
    </symbol>

    <symbol id="arrow-left" viewBox="0 0 32 32">
        <path d="M20 8L12 16L20 24" stroke-width="2" stroke-linecap="round" stroke-linejoin="round"/>
    </symbol>

    <symbol id="prev" viewBox="0 0 24 24">
        <path d="M15 18L9 12L15 6" stroke-width="2" stroke-linecap="round" stroke-linejoin="round"/>
    </symbol>

    <symbol id="next" viewBox="0 0 24 24">
        <path d="M9 18L15 12L9 6" stroke-width="2" stroke-linecap="round" stroke-linejoin="round"/>
    </symbol>

    <symbol id="ok" viewBox="0 0 32 32">
        <path d="M16 16.6399C13.184 16.6399 10.88 14.3359 10.88 11.5199C10.88 8.7039 13.184 6.3999 16 6.3999C18.816 6.3999 21.12 8.7039 21.12 11.5199C21.12 14.3359 18.816 16.6399 16 16.6399ZM16 8.8319C14.528 8.8319 13.312 10.0479 13.312 11.5199C13.312 12.9919 14.528 14.2079 16 14.2079C17.472 14.2079 18.688 12.9919 18.688 11.5199C18.688 10.0479 17.472 8.8319 16 8.8319Z"/>
        <path d="M21.504 17.1521C21.056 16.5761 20.288 16.5121 19.712 16.8961C19.712 16.8961 18.304 17.9201 16 17.9201C13.696 17.9201 12.288 16.8961 12.288 16.8961C11.712 16.4481 10.944 16.5761 10.496 17.1521C10.048 17.7281 10.176 18.4961 10.752 18.9441C10.816 19.0081 12.16 20.0321 14.4 20.3521L11.008 23.8081C10.496 24.3201 10.496 25.1521 11.008 25.6001C11.264 25.8561 11.584 25.9841 11.904 25.9841C12.224 25.9841 12.544 25.8561 12.8 25.6001L16 22.3361L19.2 25.6001C19.456 25.8561 19.776 25.9841 20.096 25.9841C20.416 25.9841 20.736 25.8561 20.992 25.6001C21.504 25.0881 21.504 24.3201 20.992 23.8081L17.6 20.3521C19.84 19.9681 21.184 18.9441 21.248 18.9441C21.824 18.4961 21.952 17.6641 21.504 17.1521Z"/>
    </symbol>

    <symbol id="youtube" viewBox="0 0 32 32">
        <path d="M25.408 11.904C25.408 11.904 25.216 10.56 24.64 9.98396C23.936 9.21596 23.104 9.21596 22.72 9.15196C20.032 8.95996 16 8.95996 16 8.95996C16 8.95996 11.968 8.95996 9.28002 9.15196C8.89602 9.21596 8.06402 9.21596 7.36002 9.98396C6.78402 10.56 6.59202 11.904 6.59202 11.904C6.59202 11.904 6.40002 13.44 6.40002 14.976V16.384C6.40002 17.92 6.59202 19.52 6.59202 19.52C6.59202 19.52 6.78402 20.864 7.36002 21.44C8.06402 22.208 9.02402 22.208 9.47202 22.272C11.008 22.336 16 22.4 16 22.4C16 22.4 20.032 22.4 22.72 22.208C23.104 22.144 23.936 22.144 24.64 21.376C25.216 20.8 25.408 19.456 25.408 19.456C25.408 19.456 25.6 17.92 25.6 16.384V14.976C25.6 13.44 25.408 11.904 25.408 11.904ZM14.016 18.176V12.8L19.2 15.488L14.016 18.176Z"/>
    </symbol>

    <symbol id="mail" viewBox="0 0 24 24">
        <path d="M22 6C22 4.9 21.1 4 20 4H4C2.9 4 2 4.9 2 6M22 6V18C22 19.1 21.1 20 20 20H4C2.9 20 2 19.1 2 18V6M22 6L12 13L2 6"
              stroke-width="2" stroke-linecap="round" stroke-linejoin="round"/>
    </symbol>

    <symbol id="tg" viewBox="0 0 24 24">
        <path d="M21 5L2 12.5L9 13.5M21 5L18.5 20L9 13.5M21 5L9 13.5M9 13.5V19L12.249 15.723"
              stroke-width="1.5" stroke-linecap="round" stroke-linejoin="round"/>
    </symbol>

    <symbol id="close" viewBox="0 0 24 24">
        <path d="M18 6L6 18M6 6L18 18" stroke-width="2" stroke-linecap="round"
              stroke-linejoin="round"/>
    </symbol>

    <symbol id="question-icon" viewBox="0 0 16 16">
        <g>
            <path d="M6.06065 6C6.21739 5.55444 6.52675 5.17873 6.93395 4.93942C7.34116 4.7001 7.81991 4.61262 8.28544 4.69247C8.75096 4.77232 9.1732 5.01434 9.47737 5.37568C9.78154 5.73702 9.94802 6.19434 9.94732 6.66666C9.94732 8 7.94732 8.66666 7.94732 8.66666M8.00065 11.3333H8.00732M14.6673 8C14.6673 11.6819 11.6826 14.6667 8.00065 14.6667C4.31875 14.6667 1.33398 11.6819 1.33398 8C1.33398 4.3181 4.31875 1.33333 8.00065 1.33333C11.6826 1.33333 14.6673 4.3181 14.6673 8Z"
                  stroke="#2563EB" stroke-width="2" stroke-linecap="round" stroke-linejoin="round"/>
        </g>
    </symbol>

    <symbol id="calendar" viewBox="0 0 20 20">
        <path d="M13.3333 1.66666V4.99999M6.66667 1.66666V4.99999M2.5 8.33332H17.5M4.16667 3.33332H15.8333C16.7538 3.33332 17.5 4.07952 17.5 4.99999V16.6667C17.5 17.5871 16.7538 18.3333 15.8333 18.3333H4.16667C3.24619 18.3333 2.5 17.5871 2.5 16.6667V4.99999C2.5 4.07952 3.24619 3.33332 4.16667 3.33332Z"
              stroke-width="1.66667" stroke-linecap="round" stroke-linejoin="round"/>
    </symbol>

    <symbol id="location" viewBox="0 0 20 20">
        <path d="M17.5 8.33334C17.5 14.1667 10 19.1667 10 19.1667C10 19.1667 2.5 14.1667 2.5 8.33334C2.5 6.34422 3.29018 4.43656 4.6967 3.03004C6.10322 1.62352 8.01088 0.833344 10 0.833344C11.9891 0.833344 13.8968 1.62352 15.3033 3.03004C16.7098 4.43656 17.5 6.34422 17.5 8.33334Z"
              stroke-width="1.66667" stroke-linecap="round" stroke-linejoin="round"/>
        <path d="M10 10.8333C11.3807 10.8333 12.5 9.71405 12.5 8.33334C12.5 6.95263 11.3807 5.83334 10 5.83334C8.61929 5.83334 7.5 6.95263 7.5 8.33334C7.5 9.71405 8.61929 10.8333 10 10.8333Z"
              stroke-width="1.66667" stroke-linecap="round" stroke-linejoin="round"/>
    </symbol>

    <symbol id="user-icon" viewBox="0 0 20 20">
        <path d="M16.6667 17.5V15.8333C16.6667 14.9493 16.3155 14.1014 15.6903 13.4763C15.0652 12.8512 14.2174 12.5 13.3333 12.5H6.66666C5.78261 12.5 4.93476 12.8512 4.30964 13.4763C3.68452 14.1014 3.33333 14.9493 3.33333 15.8333V17.5M13.3333 5.83333C13.3333 7.67428 11.8409 9.16667 9.99999 9.16667C8.15905 9.16667 6.66666 7.67428 6.66666 5.83333C6.66666 3.99238 8.15905 2.5 9.99999 2.5C11.8409 2.5 13.3333 3.99238 13.3333 5.83333Z"
              stroke-width="1.66667" stroke-linecap="round" stroke-linejoin="round"/>
    </symbol>

    <symbol id="case" viewBox="0 0 20 20">
        <path d="M13.3332 17.5V4.16667C13.3332 3.72464 13.1576 3.30072 12.845 2.98816C12.5325 2.67559 12.1085 2.5 11.6665 2.5H8.33317C7.89114 2.5 7.46722 2.67559 7.15466 2.98816C6.8421 3.30072 6.6665 3.72464 6.6665 4.16667V17.5M3.33317 5.83333H16.6665C17.587 5.83333 18.3332 6.57953 18.3332 7.5V15.8333C18.3332 16.7538 17.587 17.5 16.6665 17.5H3.33317C2.4127 17.5 1.6665 16.7538 1.6665 15.8333V7.5C1.6665 6.57953 2.4127 5.83333 3.33317 5.83333Z"
              stroke-width="1.66667" stroke-linecap="round" stroke-linejoin="round"/>
    </symbol>

    <symbol id="message" viewBox="0 0 20 20">
        <path d="M17.5 12.5C17.5 12.942 17.3244 13.366 17.0118 13.6785C16.6993 13.9911 16.2754 14.1667 15.8333 14.1667H5.83333L2.5 17.5V4.16667C2.5 3.72464 2.67559 3.30072 2.98816 2.98816C3.30072 2.67559 3.72464 2.5 4.16667 2.5H15.8333C16.2754 2.5 16.6993 2.67559 17.0118 2.98816C17.3244 3.30072 17.5 3.72464 17.5 4.16667V12.5Z"
              stroke-width="2" stroke-linecap="round" stroke-linejoin="round"/>
    </symbol>

    <symbol id="book" viewBox="0 0 20 20">
        <path d="M9.99935 5.83333C9.99935 4.94928 9.64816 4.10143 9.02304 3.47631C8.39792 2.85119 7.55007 2.5 6.66602 2.5H1.66602V15H7.49935C8.16239 15 8.79828 15.2634 9.26712 15.7322C9.73596 16.2011 9.99935 16.837 9.99935 17.5M9.99935 5.83333V17.5M9.99935 5.83333C9.99935 4.94928 10.3505 4.10143 10.9757 3.47631C11.6008 2.85119 12.4486 2.5 13.3327 2.5H18.3327V15H12.4993C11.8363 15 11.2004 15.2634 10.7316 15.7322C10.2627 16.2011 9.99935 16.837 9.99935 17.5"
              stroke-width="1.66667" stroke-linecap="round" stroke-linejoin="round"/>
    </symbol>


</svg>