<svg width="24" height="24" viewBox="0 0 24 24" fill="none" xmlns="http://www.w3.org/2000/svg">
    <g clip-path="url(#clip0_306_1407)">
        <path d="M13.7203 10.9313H10.2797C10.1927 10.9313 10.1092 10.9658 10.0477 11.0274C9.98612 11.0889 9.95155 11.1724 9.95155 11.2594V13.2587C9.95175 13.3377 9.97052 13.4156 10.0063 13.4861C10.0422 13.5565 10.0941 13.6175 10.1578 13.6643V13.6643L11.8063 14.8643C11.8624 14.9051 11.93 14.9271 11.9994 14.9271C12.0688 14.9271 12.1364 14.9051 12.1926 14.8643L13.8426 13.6643C13.9064 13.6175 13.9583 13.5565 13.9941 13.486C14.0299 13.4155 14.0487 13.3376 14.0488 13.2585V11.2598C14.0489 11.2166 14.0404 11.1739 14.0239 11.134C14.0074 11.0941 13.9832 11.0579 13.9527 11.0274C13.9222 10.9969 13.886 10.9727 13.8461 10.9562C13.8062 10.9397 13.7635 10.9312 13.7203 10.9313V10.9313ZM13.3922 13.1813L12 14.1938L10.6078 13.1813V11.5875H13.3922V13.1813Z" fill="white"/>
        <path d="M22.5531 10.3993L21.384 10.1379C21.9258 9.94381 22.3902 9.57959 22.7079 9.0997C23.0255 8.61981 23.1794 8.05001 23.1465 7.47544L23.1448 7.45219C23.141 7.40399 23.1266 7.35723 23.1026 7.31524C23.0786 7.27326 23.0456 7.23709 23.006 7.20933C22.9665 7.18156 22.9212 7.16289 22.8736 7.15463C22.8259 7.14637 22.7771 7.14874 22.7304 7.16157L21.2985 7.55626C21.802 6.92511 22.17 6.19687 22.3793 5.41707C22.5887 4.63728 22.6349 3.82268 22.5152 3.0242C22.5061 2.96322 22.4801 2.90602 22.44 2.85916C22.4 2.81229 22.3476 2.77766 22.2887 2.75923C22.2299 2.74079 22.1671 2.7393 22.1074 2.75493C22.0478 2.77055 21.9938 2.80266 21.9516 2.84757L16.7872 8.34263C16.6262 8.51117 16.5199 8.72449 16.4823 8.95455C16.4448 9.18462 16.4776 9.42067 16.5767 9.63169L16.809 10.125C16.8375 10.1886 16.8529 10.2573 16.8543 10.327C16.8556 10.3967 16.8429 10.466 16.8168 10.5307C16.7908 10.5953 16.7519 10.6541 16.7027 10.7034C16.6534 10.7527 16.5947 10.7915 16.53 10.8176C16.4255 10.8629 16.3115 10.8815 16.1981 10.8718C16.0847 10.8622 15.9754 10.8246 15.8801 10.7623L15.4419 10.4891V9.86607C15.442 9.82297 15.4335 9.78029 15.417 9.74047C15.4005 9.70065 15.3764 9.66447 15.3459 9.634C15.3154 9.60352 15.2792 9.57935 15.2394 9.56287C15.1996 9.54639 15.1569 9.53792 15.1138 9.53794H14.7562L14.6902 9.28763C14.5553 8.77359 14.572 8.23147 14.7383 7.72671C14.9047 7.22195 15.2136 6.77613 15.6277 6.44307L16.4497 6.97351C16.4923 7.00094 16.5406 7.01817 16.5909 7.02383C16.6412 7.0295 16.6921 7.02345 16.7397 7.00617C16.7872 6.98888 16.8302 6.96083 16.8651 6.9242C16.9 6.88756 16.926 6.84335 16.941 6.79501C17.0486 6.45393 17.0425 6.08714 16.9237 5.74982C16.8048 5.4125 16.5797 5.12287 16.2821 4.92451L15.7404 4.55945L16.1062 3.80307C16.1304 3.75305 16.1415 3.69771 16.1385 3.64224C16.1355 3.58676 16.1184 3.53296 16.0889 3.48589C16.0593 3.43882 16.0184 3.40001 15.9698 3.37311C15.9211 3.3462 15.8665 3.33208 15.8109 3.33207H13.263C13.2179 3.33159 13.1732 3.34055 13.1318 3.35837C13.0904 3.37619 13.0531 3.40249 13.0225 3.43556C12.9918 3.46864 12.9684 3.50776 12.9538 3.55042C12.9391 3.59308 12.9336 3.63833 12.9375 3.68326C12.7713 3.58745 12.6301 3.45376 12.5253 3.29307C12.4205 3.13238 12.3551 2.94923 12.3345 2.75851H12.7612C12.8291 2.75847 12.8953 2.73738 12.9507 2.69816C13.0061 2.65894 13.048 2.60352 13.0706 2.53951L13.3254 1.81876C13.4148 1.56405 13.413 1.28623 13.3203 1.0327C13.2276 0.779184 13.0499 0.56568 12.8173 0.428633L12.1663 0.0451951C12.1159 0.0155534 12.0585 -7.62939e-05 12 -7.62939e-05C11.9415 -7.62939e-05 11.8841 0.0155534 11.8337 0.0451951L11.1829 0.427695C10.9501 0.56475 10.7721 0.7784 10.6794 1.03213C10.5867 1.28585 10.585 1.56391 10.6746 1.81876L10.9288 2.54026C10.9514 2.6043 10.9933 2.65975 11.0488 2.69897C11.1042 2.73819 11.1705 2.75925 11.2384 2.75926H11.6649C11.6442 2.94979 11.5789 3.13277 11.4742 3.29331C11.3696 3.45386 11.2285 3.58746 11.0625 3.68326C11.0664 3.63838 11.0609 3.59318 11.0463 3.55056C11.0317 3.50794 11.0083 3.46884 10.9777 3.43577C10.9471 3.40271 10.91 3.3764 10.8686 3.35854C10.8272 3.34068 10.7826 3.33167 10.7376 3.33207H8.18925C8.13367 3.33205 8.079 3.34615 8.03036 3.37304C7.98173 3.39993 7.94072 3.43873 7.91118 3.48581C7.88165 3.53289 7.86455 3.5867 7.8615 3.64219C7.85845 3.69768 7.86955 3.75304 7.89375 3.80307L8.25975 4.55945L7.71806 4.92451C7.42051 5.1229 7.19541 5.41253 7.07662 5.74986C6.95784 6.08718 6.95178 6.45395 7.05937 6.79501C7.07437 6.84335 7.10035 6.88756 7.13528 6.9242C7.1702 6.96083 7.21313 6.98888 7.2607 7.00617C7.30827 7.02345 7.3592 7.0295 7.40949 7.02383C7.45979 7.01817 7.50809 7.00094 7.55062 6.97351L8.37262 6.44307C8.78661 6.77624 9.09533 7.22211 9.26152 7.72686C9.42771 8.23162 9.44426 8.77368 9.30918 9.28763L9.24375 9.53794H8.8875C8.8444 9.53792 8.80172 9.54639 8.7619 9.56287C8.72208 9.57935 8.6859 9.60352 8.65542 9.634C8.62495 9.66447 8.60078 9.70065 8.5843 9.74047C8.56782 9.78029 8.55935 9.82297 8.55937 9.86607V10.4889L8.12006 10.7625C8.02483 10.825 7.91558 10.8628 7.80212 10.8726C7.68866 10.8824 7.57454 10.8639 7.47 10.8188C7.40521 10.7927 7.34635 10.7538 7.29697 10.7044C7.24759 10.655 7.2087 10.5961 7.18264 10.5313C7.15658 10.4665 7.14389 10.3971 7.14533 10.3273C7.14676 10.2575 7.1623 10.1887 7.191 10.125L7.42331 9.63188C7.52235 9.42086 7.55524 9.18481 7.51766 8.95474C7.48009 8.72468 7.37379 8.51136 7.21275 8.34282L2.04844 2.84738C2.00557 2.80338 1.95116 2.77237 1.89146 2.75791C1.83176 2.74345 1.76918 2.74612 1.71094 2.76563C1.65144 2.78531 1.59859 2.82117 1.55832 2.86919C1.51805 2.91721 1.49195 2.97549 1.48294 3.03751C1.36467 3.83403 1.41186 4.64638 1.62155 5.42385C1.83124 6.20132 2.19894 6.92723 2.70169 7.55626L1.26919 7.1612C1.22256 7.14837 1.17368 7.146 1.12604 7.15425C1.0784 7.16251 1.03317 7.18119 0.993578 7.20895C0.95399 7.23672 0.921024 7.27289 0.897036 7.31487C0.873047 7.35685 0.858629 7.40362 0.85481 7.45182L0.853123 7.47713C0.82038 8.05148 0.974347 8.62101 1.29202 9.10062C1.60969 9.58024 2.07402 9.9442 2.61562 10.1381L1.44694 10.3993C1.40331 10.409 1.36213 10.4276 1.32594 10.4538C1.28975 10.48 1.2593 10.5134 1.23647 10.5518C1.21364 10.5902 1.19891 10.6329 1.19318 10.6772C1.18746 10.7216 1.19086 10.7666 1.20319 10.8096L1.20862 10.8283C1.37292 11.3788 1.72118 11.8561 2.19519 12.1806C2.66919 12.5051 3.24022 12.6571 3.81281 12.6111L2.74162 13.4423C2.67495 13.4939 2.63074 13.5693 2.61817 13.6527C2.6056 13.7361 2.62564 13.8212 2.67412 13.8902C2.87456 14.1754 3.07294 14.4326 3.28087 14.676C3.48146 14.9053 3.72904 15.0886 4.00679 15.2137C4.28454 15.3388 4.58595 15.4026 4.89056 15.4009C4.98768 15.4011 5.08471 15.3948 5.181 15.3821L9.345 14.7966L9.40687 14.8416L7.56018 15.978C7.5081 16.0101 7.466 16.056 7.43864 16.1107C7.41127 16.1654 7.39973 16.2267 7.40531 16.2876L7.50637 17.379C7.51733 17.4989 7.48817 17.6191 7.42346 17.7207C7.35874 17.8222 7.26214 17.8995 7.14881 17.9402L5.80669 18.4209L5.40356 17.9601C5.5464 17.7512 5.61005 17.4983 5.58306 17.2467C5.55608 16.9952 5.44022 16.7615 5.25633 16.5877C5.07245 16.4139 4.83259 16.3114 4.5799 16.2987C4.32721 16.2859 4.07826 16.3638 3.87782 16.5182C3.67739 16.6726 3.53861 16.8934 3.48645 17.141C3.4343 17.3886 3.47218 17.6466 3.59329 17.8688C3.7144 18.0909 3.91079 18.2626 4.14715 18.3529C4.3835 18.4432 4.64432 18.4461 4.88269 18.3613L5.46 19.0211L6.14587 19.8051C6.18475 19.8476 6.23374 19.8795 6.28829 19.898C6.34285 19.9164 6.40119 19.9208 6.45787 19.9106L8.12812 19.5731C8.35099 19.5281 8.56212 19.4374 8.74825 19.3068C8.93438 19.1763 9.09146 19.0086 9.20963 18.8143C9.3278 18.6201 9.4045 18.4035 9.43489 18.1781C9.46529 17.9528 9.44873 17.7236 9.38625 17.505L9.35587 17.3981L10.3999 17.2106L10.5191 17.4272C10.6191 17.6107 10.6531 17.8229 10.6155 18.0284C10.5779 18.2339 10.471 18.4203 10.3125 18.5565L8.62931 19.9928C8.58845 20.0277 8.55682 20.0722 8.5372 20.1222C8.51758 20.1723 8.51058 20.2264 8.51681 20.2798C8.59128 20.9209 8.82969 21.532 9.20906 22.0541C9.25985 22.1239 9.33606 22.1709 9.42122 22.1849C9.50637 22.199 9.59362 22.1789 9.66412 22.1291L10.4719 21.5573L9.97331 22.4835C9.93533 22.554 9.92445 22.6359 9.94272 22.7139C9.96099 22.7918 10.0072 22.8604 10.0725 22.9067C10.1722 22.9774 10.2626 23.0363 10.3492 23.0869L11.8346 23.9552C11.8849 23.9845 11.942 24 12.0002 24C12.0584 24 12.1155 23.9845 12.1657 23.9552L13.6513 23.0869C13.7377 23.0363 13.8281 22.9774 13.9279 22.9067C13.9932 22.8604 14.0394 22.7918 14.0576 22.7139C14.0759 22.6359 14.065 22.554 14.0271 22.4835L13.5285 21.5573L14.3362 22.1291C14.4067 22.1789 14.494 22.199 14.5792 22.1849C14.6643 22.1709 14.7405 22.1239 14.7913 22.0541C15.1707 21.532 15.4091 20.9209 15.4836 20.2798C15.4898 20.2264 15.4828 20.1723 15.4632 20.1222C15.4436 20.0722 15.4119 20.0277 15.3711 19.9928L13.6875 18.5565C13.5289 18.4203 13.4219 18.2338 13.3844 18.0282C13.3469 17.8225 13.381 17.6103 13.4812 17.4268L13.6005 17.2101L14.6445 17.3976L14.6141 17.5044C14.5516 17.7231 14.5351 17.9522 14.5655 18.1776C14.5959 18.4029 14.6726 18.6195 14.7907 18.8138C14.9089 19.008 15.066 19.1757 15.2521 19.3063C15.4382 19.4369 15.6494 19.5275 15.8722 19.5726L17.2374 19.8486C17.5367 20 17.874 20.0598 18.2071 20.0203C18.5402 19.9809 18.8542 19.8439 19.1097 19.6267C19.3653 19.4095 19.551 19.1216 19.6437 18.7993C19.7363 18.4769 19.7317 18.1344 19.6304 17.8146C19.5291 17.4949 19.3357 17.2121 19.0744 17.0019C18.813 16.7916 18.4955 16.6632 18.1614 16.6327C17.8274 16.6022 17.4918 16.671 17.1968 16.8305C16.9017 16.99 16.6603 17.2331 16.5028 17.5292C16.4929 17.4799 16.4899 17.4294 16.494 17.3792L16.5951 16.2878C16.6006 16.2269 16.5891 16.1656 16.5617 16.1109C16.5344 16.0562 16.4923 16.0102 16.4402 15.9782L14.5931 14.8416L14.655 14.7966L18.8209 15.3819C18.9168 15.3946 19.0134 15.4009 19.1102 15.4007C19.4148 15.4023 19.7161 15.3384 19.9938 15.2133C20.2715 15.0881 20.519 14.9047 20.7195 14.6754C20.9272 14.4317 21.1256 14.175 21.3261 13.8898C21.3745 13.8208 21.3946 13.7357 21.382 13.6523C21.3694 13.5689 21.3252 13.4936 21.2586 13.4419L20.1872 12.6107C20.7599 12.6575 21.3313 12.5059 21.8055 12.1813C22.2797 11.8567 22.6279 11.379 22.7916 10.8281L22.797 10.8094C22.8093 10.7664 22.8127 10.7214 22.807 10.6771C22.8013 10.6327 22.7865 10.59 22.7637 10.5516C22.7409 10.5132 22.7104 10.4798 22.6742 10.4536C22.638 10.4274 22.5969 10.4089 22.5532 10.3991L22.5531 10.3993ZM14.7857 13.2587C14.7837 13.4538 14.7366 13.6458 14.6481 13.8197C14.5596 13.9936 14.4321 14.1447 14.2755 14.2611L12 15.9174L9.7245 14.2611C9.56792 14.1447 9.44039 13.9936 9.35188 13.8197C9.26337 13.6458 9.21629 13.4538 9.21431 13.2587V10.1942H14.7857V13.2587ZM16.3446 6.12488L15.7926 5.76863C15.7383 5.73362 15.675 5.71537 15.6105 5.71617C15.5459 5.71697 15.4831 5.73679 15.4297 5.77313C14.849 6.17027 14.4053 6.7373 14.1594 7.39649C13.9135 8.05569 13.8775 8.7748 14.0563 9.45526L14.0781 9.53776H12.3343C12.4043 7.92111 12.9609 6.3633 13.9312 5.06832L13.9821 5.00082H15.2205L15.9142 5.46957C16.0264 5.5442 16.1223 5.64072 16.1963 5.75332C16.2702 5.86593 16.3206 5.99231 16.3446 6.12488V6.12488ZM15.2874 3.98832L15.1149 4.34457H14.0124L13.8171 3.98832H15.2874ZM11.2935 1.59995C11.2546 1.48885 11.2554 1.36769 11.2959 1.25714C11.3363 1.1466 11.4139 1.05351 11.5153 0.993758L12 0.70857L12.4849 0.993758C12.5863 1.05354 12.6638 1.14664 12.7042 1.25718C12.7446 1.36773 12.7454 1.48887 12.7065 1.59995L12.5295 2.10245H11.4705L11.2935 1.59995ZM12 3.68701C12.1528 3.91036 12.3522 4.09799 12.5844 4.237C12.8165 4.37601 13.0761 4.46311 13.3451 4.49232L13.4287 4.64476L13.4068 4.67401C12.7664 5.52851 12.2894 6.49404 12 7.52194C11.7107 6.49411 11.2339 5.52859 10.5937 4.67401L10.5718 4.64476L10.6552 4.49232C10.9242 4.46306 11.1837 4.37594 11.4158 4.23693C11.6479 4.09792 11.8472 3.91032 12 3.68701ZM10.1829 3.98832L9.98756 4.34457H8.88506L8.71256 3.98832H10.1829ZM8.57043 5.77332C8.51709 5.73702 8.45423 5.71723 8.38971 5.71643C8.32518 5.71563 8.26185 5.73385 8.20762 5.76882L7.65562 6.12507C7.67931 5.9924 7.72955 5.86589 7.80333 5.75312C7.87711 5.64035 7.97292 5.54365 8.085 5.46882L8.77875 5.00007H10.0172L10.068 5.06757C11.0381 6.36269 11.5944 7.92057 11.6642 9.5372H9.92043L9.94219 9.45469C10.121 8.7745 10.0851 8.05566 9.83952 7.39663C9.59392 6.7376 9.15059 6.17061 8.57025 5.77332H8.57043ZM5.091 14.7315C4.84964 14.766 4.6035 14.74 4.37463 14.656C4.14577 14.572 3.94132 14.4325 3.77962 14.25C3.64837 14.0964 3.52125 13.9365 3.39431 13.7664C4.29769 13.0656 5.26556 12.3135 5.26556 12.3135C5.32359 12.2683 5.36474 12.2049 5.3824 12.1334C5.40005 12.062 5.39318 11.9867 5.3629 11.9196C5.33261 11.8526 5.28067 11.7977 5.21541 11.7637C5.15015 11.7297 5.07536 11.7186 5.00306 11.7323L3.96037 11.9304C3.56657 12.0054 3.15909 11.9512 2.79862 11.7758C2.43815 11.6004 2.14398 11.3133 1.95994 10.9571L4.18894 10.4588C4.26228 10.4424 4.3278 10.4014 4.37453 10.3425C4.42126 10.2837 4.44637 10.2106 4.44567 10.1354C4.44496 10.0603 4.41849 9.98765 4.37067 9.92968C4.32285 9.87172 4.25658 9.83192 4.18294 9.81694L3.12825 9.60207C2.71939 9.51993 2.34586 9.31356 2.05869 9.01116C1.77152 8.70875 1.58472 8.32506 1.52381 7.91251L3.71756 8.51738C3.79036 8.5375 3.86788 8.53189 3.93702 8.50149C4.00617 8.4711 4.06271 8.41778 4.0971 8.35053C4.13149 8.28328 4.14164 8.20623 4.12581 8.13238C4.10999 8.05852 4.06917 7.99239 4.01025 7.94513C3.39804 7.45097 2.90591 6.82437 2.57091 6.11249C2.2359 5.40062 2.06675 4.62202 2.07619 3.83532L6.73444 8.79207C6.80576 8.86447 6.85312 8.95704 6.87012 9.05724C6.88713 9.15744 6.87294 9.26044 6.8295 9.35232L6.59719 9.84544C6.53195 9.98684 6.49551 10.1398 6.49 10.2954C6.4845 10.4511 6.51003 10.6062 6.56511 10.7519C6.62019 10.8976 6.70371 11.0308 6.81082 11.1438C6.91792 11.2569 7.04646 11.3475 7.18893 11.4103C7.39246 11.5039 7.61633 11.5446 7.83977 11.5286C8.06322 11.5126 8.27901 11.4405 8.46712 11.3188L8.55806 11.2626V13.2587C8.56176 13.5918 8.65002 13.9185 8.81456 14.2082L5.091 14.7315ZM4.1325 17.3679C4.1325 17.2891 4.15588 17.212 4.19968 17.1465C4.24348 17.0809 4.30574 17.0298 4.37858 16.9997C4.45141 16.9695 4.53157 16.9616 4.60889 16.977C4.68622 16.9924 4.75724 17.0303 4.81299 17.0861C4.86874 17.1418 4.90671 17.2129 4.92209 17.2902C4.93747 17.3675 4.92958 17.4477 4.8994 17.5205C4.86923 17.5933 4.81814 17.6556 4.75259 17.6994C4.68703 17.7432 4.60996 17.7666 4.53112 17.7666C4.42545 17.7664 4.32414 17.7244 4.24942 17.6497C4.17469 17.5749 4.13265 17.4736 4.1325 17.3679V17.3679ZM18.0075 17.2823C18.2636 17.284 18.5103 17.3793 18.7011 17.5502C18.8919 17.7211 19.0136 17.9559 19.0434 18.2103C19.0731 18.4647 19.0088 18.7212 18.8626 18.9315C18.7164 19.1419 18.4984 19.2915 18.2496 19.3523L18.5392 19.0211C18.5745 18.9809 18.5994 18.9327 18.6117 18.8806C18.6241 18.8286 18.6235 18.7743 18.6101 18.7226C18.5966 18.6708 18.5707 18.6231 18.5346 18.5836C18.4985 18.5442 18.4533 18.5141 18.4029 18.4961L17.013 17.9981C17.0821 17.789 17.2156 17.6072 17.3944 17.4786C17.5731 17.35 17.788 17.2813 18.0082 17.2823H18.0075ZM14.0196 15.2591L15.9223 16.4301L15.8402 17.3184C15.8184 17.5559 15.8682 17.7945 15.9829 18.0035C16.0977 18.2126 16.2724 18.3825 16.4844 18.4916L16.4872 18.4937C16.5333 18.5181 16.5809 18.5396 16.6297 18.558L17.7289 18.9518L17.4851 19.23L17.4041 19.2135L16.0026 18.9302C15.8684 18.903 15.7414 18.8485 15.6294 18.7698C15.5174 18.6912 15.4228 18.5903 15.3517 18.4734C15.2806 18.3565 15.2344 18.2261 15.2161 18.0905C15.1978 17.9549 15.2077 17.817 15.2452 17.6854L15.375 17.2294C15.3875 17.1853 15.3907 17.1392 15.3842 17.0938C15.3778 17.0485 15.362 17.005 15.3378 16.9661C15.3135 16.9273 15.2814 16.8939 15.2436 16.8682C15.2057 16.8425 15.1628 16.825 15.1177 16.8169L13.4846 16.5231C13.417 16.5109 13.3473 16.5203 13.2853 16.5498C13.2233 16.5792 13.1721 16.6274 13.1389 16.6875L12.9058 17.1111C12.7335 17.427 12.6749 17.7926 12.7397 18.1466C12.8045 18.5006 12.9889 18.8216 13.2621 19.056L14.8078 20.3751C14.7455 20.7346 14.6201 21.0803 14.4375 21.3962L12.7672 20.2149C12.7069 20.1723 12.6338 20.1512 12.56 20.1552C12.4861 20.1592 12.4158 20.1881 12.3604 20.2371C12.305 20.2861 12.2678 20.3523 12.2548 20.4251C12.2418 20.4979 12.2538 20.573 12.2887 20.6381L13.3063 22.5293L12 23.2918L10.6942 22.5283L11.7118 20.6372C11.7468 20.572 11.7588 20.497 11.7458 20.4242C11.7327 20.3514 11.6955 20.2851 11.6401 20.2361C11.5847 20.1871 11.5144 20.1583 11.4406 20.1543C11.3667 20.1503 11.2937 20.1713 11.2333 20.214L9.5625 21.3962C9.37992 21.0802 9.25462 20.7343 9.19237 20.3747L10.7381 19.0556C11.0111 18.8211 11.1954 18.5 11.2601 18.146C11.3247 17.7919 11.2659 17.4264 11.0934 17.1105L10.8611 16.6875C10.828 16.6274 10.7768 16.5792 10.7148 16.5496C10.6528 16.52 10.5832 16.5106 10.5156 16.5227L8.88244 16.8165C8.83732 16.8246 8.7944 16.8421 8.75646 16.8678C8.71851 16.8936 8.68638 16.9269 8.66212 16.9658C8.63787 17.0047 8.62203 17.0483 8.61564 17.0937C8.60924 17.1391 8.61243 17.1853 8.625 17.2294L8.75512 17.685C8.79267 17.8166 8.8026 17.9545 8.78428 18.0901C8.76596 18.2258 8.71978 18.3561 8.64866 18.473C8.57754 18.5899 8.483 18.6908 8.371 18.7695C8.25899 18.8481 8.13193 18.9027 7.99781 18.9298L6.51431 19.2298L6.27056 18.9518L7.3695 18.558C7.62005 18.4684 7.83366 18.2979 7.97664 18.0735C8.11963 17.849 8.18387 17.5834 8.15925 17.3184L8.07712 16.4301L9.97987 15.2591L11.8063 16.5885C11.8624 16.6294 11.93 16.6514 11.9994 16.6514C12.0688 16.6514 12.1365 16.6294 12.1926 16.5885L14.0196 15.2591ZM20.0396 11.9304L18.9969 11.7323C18.9246 11.7186 18.8498 11.7297 18.7846 11.7637C18.7193 11.7977 18.6674 11.8526 18.6371 11.9196C18.6068 11.9867 18.5999 12.062 18.6176 12.1334C18.6353 12.2049 18.6764 12.2683 18.7344 12.3135C18.7344 12.3135 19.7023 13.0656 20.6057 13.7664C20.4787 13.9365 20.3514 14.0964 20.2204 14.2498C20.059 14.4322 19.8548 14.5717 19.6262 14.6558C19.3975 14.7398 19.1516 14.7658 18.9105 14.7313L15.1854 14.2082C15.35 13.9185 15.4382 13.5918 15.4419 13.2587V11.2622L15.5331 11.3184C15.7212 11.4399 15.937 11.512 16.1604 11.528C16.3837 11.5439 16.6076 11.5033 16.8111 11.4098C16.9535 11.3469 17.0821 11.2563 17.1892 11.1433C17.2963 11.0302 17.3798 10.897 17.4349 10.7513C17.49 10.6057 17.5155 10.4505 17.51 10.2949C17.5045 10.1393 17.4681 9.98628 17.4028 9.84488L17.1705 9.35176C17.1271 9.25988 17.1129 9.15687 17.1299 9.05667C17.1469 8.95647 17.1942 8.86391 17.2656 8.79151L21.9249 3.83326C21.9345 4.62021 21.7653 5.39907 21.4301 6.11116C21.095 6.82325 20.6026 7.45 19.9901 7.94419C19.9312 7.99145 19.8904 8.05758 19.8746 8.13144C19.8587 8.20529 19.8689 8.28235 19.9033 8.34959C19.9377 8.41684 19.9942 8.47016 20.0633 8.50056C20.1325 8.53095 20.21 8.53657 20.2828 8.51645L22.4784 7.91101C22.4174 8.32396 22.2302 8.70797 21.9427 9.01055C21.6551 9.31313 21.2811 9.51952 20.8717 9.60151L19.8171 9.81638C19.7434 9.83136 19.6771 9.87115 19.6293 9.92912C19.5815 9.98709 19.555 10.0597 19.5543 10.1349C19.5536 10.21 19.5787 10.2831 19.6255 10.342C19.6722 10.4008 19.7377 10.4418 19.8111 10.4582L22.0401 10.9566C21.8562 11.3129 21.5621 11.6002 21.2016 11.7757C20.8411 11.9512 20.4335 12.0055 20.0396 11.9304V11.9304Z" fill="white"/>
    </g>
    <defs>
        <clipPath id="clip0_306_1407">
            <rect width="24" height="24" fill="white"/>
        </clipPath>
    </defs>
</svg>
