<svg width="552" height="85" viewBox="0 0 552 85" fill="none" xmlns="http://www.w3.org/2000/svg">
    <rect width="84.8272" height="85" rx="8" fill="white"/>
    <g clip-path="url(#clip0_45_3155)">
        <path d="M72.36 12.4927H74.2239V10.625H72.36C70.8185 10.625 69.5642 11.9898 69.5642 13.6678V27.2001C65.7651 24.5635 61.0928 23.7916 56.785 24.848L49.5634 17.0904C48.6519 16.1108 47.3627 15.569 46.0284 15.6079L38.3554 15.8175C35.9401 15.8842 33.5336 16.5164 31.3964 17.6463L21.5101 22.8734C20.7549 23.2732 19.903 23.4847 19.0468 23.4847L17.5406 23.4852V21.2158H10.6035V23.0835H15.6768V43.6279H10.6035V45.4956H17.5406V43.2257L19.7676 43.2252C20.6224 43.2252 21.4402 43.4903 22.1334 43.9917L27.0469 47.5505C29.1365 49.0636 31.6134 49.853 34.133 49.853C35.1325 49.853 36.1391 49.729 37.1298 49.4761L46.2798 47.1429C47.0491 48.7519 48.0825 50.2119 49.3601 51.4916C52.4452 54.583 56.503 56.1418 60.5686 56.1418C63.7119 56.1418 66.8597 55.2089 69.5642 53.332V61.7453C69.5642 63.4228 70.8185 64.7876 72.36 64.7876H74.2239V62.9199H72.36C71.8548 62.9199 71.4281 62.382 71.4281 61.7453V13.6678C71.4281 13.0306 71.8548 12.4927 72.36 12.4927ZM36.6702 47.6663C33.7176 48.4187 30.6077 47.8248 28.1385 46.0369L23.225 42.4781C22.212 41.7447 21.0165 41.3575 19.7671 41.3575L17.5406 41.358V25.3529L19.0468 25.3524C20.2054 25.3524 21.3582 25.0659 22.3804 24.5251L32.2658 19.298C34.152 18.3014 36.2755 17.7436 38.4069 17.6842L46.0798 17.4746C46.8807 17.4522 47.6539 17.7762 48.2005 18.3642L54.8153 25.4701C53.1597 26.115 51.5924 27.0474 50.1906 28.2658L46.6045 25.4818C45.8624 24.9074 44.9071 24.6618 43.9835 24.8067L39.1087 25.5718C37.9385 25.7546 36.9619 26.5148 36.4959 27.6058L34.0651 33.2886C33.4744 34.6684 33.8413 36.254 34.9786 37.2355L37.6356 39.5229C38.469 40.2418 39.6048 40.5156 40.6731 40.2544L46.1633 38.914C47.2113 38.6581 48.2922 38.9616 49.0552 39.7267C49.4193 40.0915 49.6877 40.5482 49.8309 41.0482C50.0619 41.8526 49.96 42.6955 49.544 43.4217C49.1281 44.1478 48.4529 44.6619 47.6428 44.8682L36.6702 47.6663ZM48.8446 29.5839C46.8671 31.757 45.5493 34.3912 45.0023 37.2754L40.2314 38.4398C39.746 38.5589 39.2301 38.4344 38.851 38.1071L36.1935 35.8192C35.6766 35.3732 35.5091 34.6519 35.778 34.0249L38.2093 28.3412C38.4209 27.8456 38.8646 27.5002 39.3966 27.4171L44.2727 26.652C44.6916 26.5854 45.1265 26.6977 45.4639 26.9589L48.8446 29.5839ZM69.5642 50.9824C64.042 55.6525 55.8244 55.3276 50.6779 50.1711C49.6401 49.1312 48.7854 47.9571 48.1272 46.6711C49.4193 46.3351 50.4959 45.5121 51.1604 44.3511C51.8297 43.1829 51.9933 41.8264 51.622 40.5321C51.3919 39.7291 50.9599 38.9937 50.3731 38.4057C49.4508 37.4816 48.2393 36.9763 46.9788 36.9573C47.5782 34.4627 48.8417 32.2015 50.6779 30.3616C55.8244 25.2045 64.0415 24.8796 69.5642 29.5498V50.9824Z" fill="#2563EB"/>
        <path d="M55.8958 48.2898H57.7597V42.251H61.6738C64.3119 42.251 66.4578 40.1007 66.4578 37.4573C66.4578 34.8138 64.3119 32.6636 61.6738 32.6636H55.8958V48.2898ZM57.7597 34.5312H61.6738C63.2838 34.5312 64.5939 35.844 64.5939 37.4573C64.5939 39.0706 63.2838 40.3833 61.6738 40.3833H57.7597V34.5312Z" fill="#2563EB"/>
        <path d="M33.7156 53.0835H35.5795V54.9512H33.7156V53.0835Z" fill="#2563EB"/>
        <path d="M41.1711 53.0835H43.035V54.9512H41.1711V53.0835Z" fill="#2563EB"/>
        <path d="M37.4434 53.0835H39.3073V54.9512H37.4434V53.0835Z" fill="#2563EB"/>
        <path d="M33.7156 58.064H35.5795V59.9316H33.7156V58.064Z" fill="#2563EB"/>
        <path d="M37.4434 58.064H39.3073V59.9316H37.4434V58.064Z" fill="#2563EB"/>
        <path d="M29.9879 58.064H31.8517V59.9316H29.9879V58.064Z" fill="#2563EB"/>
        <path d="M23.9686 25.7965L25.617 24.9249L26.4868 26.5766L24.8384 27.4482L23.9686 25.7965Z" fill="#2563EB"/>
        <path d="M27.2658 24.0528L32.4182 21.3286L33.288 22.9804L28.1356 25.7045L27.2658 24.0528Z" fill="#2563EB"/>
        <path d="M11.9082 39.9475H13.7721V41.8152H11.9082V39.9475Z" fill="#2563EB"/>
        <path d="M62.8227 52.1959C64.674 51.8457 66.4417 51.0519 67.9343 49.9016L66.7975 48.4211C65.536 49.3939 64.042 50.0646 62.4771 50.3608L62.8227 52.1959Z" fill="#2563EB"/>
        <path d="M60.3288 50.5368C59.9104 50.5271 59.4881 50.4911 59.0751 50.4308L58.8052 52.2785C59.2935 52.35 59.7915 52.3924 60.2846 52.404C60.3793 52.406 60.4734 52.4069 60.5676 52.4069C60.6511 52.4069 60.7341 52.4065 60.8176 52.4045L60.7792 50.5373C60.6293 50.5402 60.4793 50.5402 60.3288 50.5368Z" fill="#2563EB"/>
    </g>
    <rect x="10.1035" y="10.125" width="64.6204" height="64.75" rx="4.5" stroke="#2563EB"/>
    <path d="M114.122 77.7049C112.443 77.7049 110.997 77.3238 109.785 76.5617C108.58 75.792 107.653 74.7317 107.006 73.381C106.358 72.0302 106.034 70.4832 106.034 68.7401C106.034 66.9743 106.366 65.416 107.028 64.0652C107.691 62.7069 108.625 61.6467 109.83 60.8845C111.035 60.1223 112.454 59.7413 114.088 59.7413C115.406 59.7413 116.581 59.9865 117.613 60.477C118.645 60.96 119.477 61.6391 120.109 62.5145C120.749 63.3898 121.13 64.4123 121.25 65.582H117.963C117.782 64.767 117.368 64.0652 116.72 63.4766C116.08 62.888 115.222 62.5937 114.145 62.5937C113.204 62.5937 112.379 62.8427 111.671 63.3408C110.971 63.8313 110.425 64.5331 110.033 65.4462C109.641 66.3517 109.446 67.4233 109.446 68.6608C109.446 69.9286 109.638 71.0228 110.022 71.9434C110.406 72.8641 110.948 73.5772 111.648 74.0828C112.356 74.5883 113.188 74.8411 114.145 74.8411C114.785 74.8411 115.365 74.7242 115.884 74.4902C116.412 74.2488 116.852 73.9054 117.206 73.4602C117.568 73.015 117.82 72.4792 117.963 71.8529H121.25C121.13 72.9772 120.764 73.9809 120.154 74.8638C119.544 75.7467 118.727 76.4409 117.703 76.9465C116.687 77.4521 115.493 77.7049 114.122 77.7049Z" fill="#6B7280"/>
    <path d="M132.34 77.7049C130.631 77.7049 129.159 77.3389 127.923 76.6069C126.696 75.8674 125.747 74.8298 125.077 73.4942C124.414 72.1509 124.083 70.5776 124.083 68.774C124.083 66.9931 124.414 65.4235 125.077 64.0652C125.747 62.7069 126.681 61.6467 127.878 60.8845C129.083 60.1223 130.491 59.7413 132.103 59.7413C133.082 59.7413 134.031 59.9035 134.95 60.228C135.868 60.5525 136.693 61.0618 137.424 61.7561C138.154 62.4503 138.73 63.3521 139.152 64.4614C139.574 65.5631 139.785 66.9026 139.785 68.4797V69.6796H125.992V67.1441H136.475C136.475 66.2536 136.294 65.465 135.932 64.7783C135.571 64.0841 135.063 63.537 134.408 63.137C133.76 62.7371 132.999 62.5371 132.126 62.5371C131.177 62.5371 130.348 62.7711 129.64 63.2389C128.94 63.6992 128.398 64.3029 128.014 65.05C127.637 65.7895 127.449 66.5932 127.449 67.461V69.4419C127.449 70.604 127.652 71.5925 128.059 72.4075C128.473 73.2225 129.049 73.8451 129.787 74.2752C130.525 74.6978 131.388 74.9091 132.374 74.9091C133.014 74.9091 133.598 74.8185 134.125 74.6374C134.652 74.4487 135.108 74.1695 135.492 73.7998C135.876 73.43 136.17 72.9735 136.373 72.4301L139.57 73.0074C139.314 73.9507 138.854 74.777 138.192 75.4863C137.537 76.1881 136.712 76.7352 135.718 77.1276C134.731 77.5125 133.605 77.7049 132.34 77.7049Z" fill="#6B7280"/>
    <path d="M143.532 83.8739V59.9677H146.831V62.7861H147.113C147.309 62.4239 147.591 62.0051 147.96 61.5297C148.329 61.0543 148.841 60.6393 149.496 60.2846C150.152 59.9224 151.018 59.7413 152.095 59.7413C153.495 59.7413 154.745 60.0959 155.845 60.8053C156.944 61.5146 157.807 62.5371 158.432 63.8728C159.064 65.2085 159.381 66.8158 159.381 68.6948C159.381 70.5738 159.068 72.1849 158.443 73.5281C157.818 74.8638 156.959 75.8938 155.868 76.6183C154.776 77.3352 153.529 77.6936 152.128 77.6936C151.074 77.6936 150.212 77.5163 149.542 77.1616C148.879 76.8069 148.359 76.3919 147.983 75.9165C147.606 75.4411 147.316 75.0185 147.113 74.6487H146.91V83.8739H143.532ZM146.842 68.6608C146.842 69.8833 147.019 70.9549 147.373 71.8755C147.727 72.7961 148.239 73.5168 148.909 74.0375C149.579 74.5506 150.4 74.8072 151.372 74.8072C152.381 74.8072 153.224 74.5393 153.902 74.0035C154.58 73.4602 155.092 72.7244 155.438 71.7963C155.792 70.8681 155.969 69.8229 155.969 68.6608C155.969 67.5138 155.796 66.4838 155.45 65.5707C155.111 64.6576 154.599 63.9369 153.913 63.4087C153.236 62.8805 152.388 62.6164 151.372 62.6164C150.393 62.6164 149.564 62.8692 148.886 63.3747C148.216 63.8803 147.708 64.5859 147.361 65.4914C147.015 66.397 146.842 67.4534 146.842 68.6608Z" fill="#6B7280"/>
    <path d="M163.165 77.354V59.9677H170.361C172.319 59.9677 173.87 60.3865 175.015 61.2241C176.159 62.0542 176.732 63.1823 176.732 64.6085C176.732 65.6273 176.408 66.4347 175.76 67.0309C175.113 67.627 174.254 68.027 173.185 68.2307C173.96 68.3213 174.672 68.5552 175.32 68.9325C175.967 69.3023 176.487 69.8003 176.879 70.4266C177.278 71.053 177.477 71.8 177.477 72.6678C177.477 73.5885 177.24 74.4035 176.766 75.1128C176.291 75.8146 175.602 76.3655 174.698 76.7654C173.802 77.1578 172.722 77.354 171.456 77.354H163.165ZM166.339 74.5242H171.456C172.292 74.5242 172.947 74.3242 173.422 73.9243C173.896 73.5243 174.134 72.981 174.134 72.2943C174.134 71.4869 173.896 70.853 173.422 70.3927C172.947 69.9248 172.292 69.6909 171.456 69.6909H166.339V74.5242ZM166.339 67.212H170.394C171.027 67.212 171.569 67.1214 172.021 66.9403C172.481 66.7592 172.831 66.5026 173.072 66.1706C173.32 65.831 173.444 65.4311 173.444 64.9708C173.444 64.2992 173.17 63.7747 172.62 63.3974C172.07 63.0201 171.317 62.8314 170.361 62.8314H166.339V67.212Z" fill="#6B7280"/>
    <path d="M184.492 72.6113L192.14 59.9677H195.777V77.354H192.467V64.6991L184.854 77.354H181.182V59.9677H184.492V72.6113Z" fill="#6B7280"/>
    <path d="M207.627 77.7049C205.948 77.7049 204.502 77.3238 203.289 76.5617C202.084 75.792 201.158 74.7317 200.51 73.381C199.863 72.0302 199.539 70.4832 199.539 68.7401C199.539 66.9743 199.87 65.416 200.533 64.0652C201.196 62.7069 202.129 61.6467 203.334 60.8845C204.539 60.1223 205.959 59.7413 207.593 59.7413C208.911 59.7413 210.086 59.9865 211.117 60.477C212.149 60.96 212.981 61.6391 213.614 62.5145C214.254 63.3898 214.634 64.4123 214.755 65.582H211.468C211.287 64.767 210.873 64.0652 210.225 63.4766C209.585 62.888 208.726 62.5937 207.649 62.5937C206.708 62.5937 205.883 62.8427 205.176 63.3408C204.475 63.8313 203.929 64.5331 203.538 65.4462C203.146 66.3517 202.95 67.4233 202.95 68.6608C202.95 69.9286 203.142 71.0228 203.526 71.9434C203.91 72.8641 204.453 73.5772 205.153 74.0828C205.861 74.5883 206.693 74.8411 207.649 74.8411C208.29 74.8411 208.869 74.7242 209.389 74.4902C209.916 74.2488 210.357 73.9054 210.711 73.4602C211.072 73.015 211.325 72.4792 211.468 71.8529H214.755C214.634 72.9772 214.269 73.9809 213.659 74.8638C213.049 75.7467 212.232 76.4409 211.208 76.9465C210.191 77.4521 208.997 77.7049 207.627 77.7049Z" fill="#6B7280"/>
    <path d="M232.75 62.673C232.162 62.6805 231.598 62.8201 231.055 63.0918C230.513 63.3634 230.065 63.7256 229.711 64.1784C229.365 64.6312 229.191 65.1443 229.191 65.7178H226.006C226.006 64.9028 226.187 64.1331 226.548 63.4087C226.91 62.6843 227.403 62.0466 228.028 61.4958C228.653 60.9449 229.372 60.511 230.185 60.194C230.999 59.8771 231.854 59.7186 232.75 59.7186C234.384 59.7186 235.766 60.1186 236.895 60.9185C238.033 61.7108 238.895 62.7673 239.482 64.0879C240.07 65.4009 240.363 66.8422 240.363 68.4118V68.9778C240.363 70.5474 240.07 71.9925 239.482 73.313C238.895 74.6336 238.033 75.6901 236.895 76.4824C235.766 77.2748 234.384 77.671 232.75 77.671C231.439 77.671 230.276 77.3917 229.259 76.8333C228.243 76.2749 227.444 75.5128 226.864 74.5468C226.292 73.5734 226.006 72.4641 226.006 71.219H229.191C229.191 71.8378 229.353 72.4113 229.677 72.9395C230.001 73.4677 230.43 73.8941 230.965 74.2186C231.507 74.5355 232.102 74.6978 232.75 74.7053C233.721 74.6978 234.523 74.4035 235.156 73.8224C235.796 73.2414 236.27 72.5132 236.579 71.6378C236.895 70.7549 237.054 69.8682 237.054 68.9778V68.4118C237.054 67.4836 236.895 66.5819 236.579 65.7065C236.27 64.8312 235.796 64.1105 235.156 63.5445C234.523 62.971 233.721 62.6805 232.75 62.673ZM238.24 67.3138V69.9173H231.134V67.3138H238.24Z" fill="#6B7280"/>
    <path d="M242.753 77.354L242.741 74.4223H243.363C243.845 74.4223 244.247 74.3205 244.571 74.1167C244.903 73.9054 245.174 73.5508 245.385 73.0527C245.595 72.5547 245.757 71.868 245.87 70.9926C245.983 70.1097 246.066 69.0004 246.119 67.6647L246.424 59.9677H258.533V77.354H255.224V62.888H249.553L249.282 68.7967C249.214 70.2304 249.067 71.4831 248.841 72.5547C248.623 73.6262 248.303 74.5204 247.881 75.2373C247.459 75.9467 246.917 76.4787 246.254 76.8333C245.592 77.1805 244.786 77.354 243.837 77.354H242.753Z" fill="#6B7280"/>
    <path d="M270.516 77.7049C268.806 77.7049 267.334 77.3389 266.099 76.6069C264.872 75.8674 263.923 74.8298 263.252 73.4942C262.59 72.1509 262.258 70.5776 262.258 68.774C262.258 66.9931 262.59 65.4235 263.252 64.0652C263.923 62.7069 264.856 61.6467 266.054 60.8845C267.259 60.1223 268.667 59.7413 270.279 59.7413C271.258 59.7413 272.207 59.9035 273.125 60.228C274.044 60.5525 274.869 61.0618 275.599 61.7561C276.33 62.4503 276.906 63.3521 277.328 64.4614C277.749 65.5631 277.96 66.9026 277.96 68.4797V69.6796H264.167V67.1441H274.65C274.65 66.2536 274.47 65.465 274.108 64.7783C273.747 64.0841 273.238 63.537 272.583 63.137C271.935 62.7371 271.175 62.5371 270.301 62.5371C269.352 62.5371 268.524 62.7711 267.816 63.2389C267.116 63.6992 266.573 64.3029 266.189 65.05C265.813 65.7895 265.625 66.5932 265.625 67.461V69.4419C265.625 70.604 265.828 71.5925 266.235 72.4075C266.649 73.2225 267.225 73.8451 267.963 74.2752C268.701 74.6978 269.563 74.9091 270.55 74.9091C271.19 74.9091 271.774 74.8185 272.301 74.6374C272.828 74.4487 273.283 74.1695 273.668 73.7998C274.052 73.43 274.345 72.9735 274.549 72.4301L277.745 73.0074C277.489 73.9507 277.03 74.777 276.367 75.4863C275.712 76.1881 274.888 76.7352 273.893 77.1276C272.907 77.5125 271.781 77.7049 270.516 77.7049Z" fill="#6B7280"/>
    <path d="M281.708 77.354V59.9677H285.085V67.2572H286.712L292.439 59.9677H296.619L289.897 68.4231L296.698 77.354H292.507L287.277 70.404H285.085V77.354H281.708Z" fill="#6B7280"/>
    <path d="M298.35 62.888V59.9677H312.99V62.888H307.33V77.354H304.032V62.888H298.35Z" fill="#6B7280"/>
    <path d="M316.562 83.8739V59.9677H319.861V62.7861H320.143C320.339 62.4239 320.621 62.0051 320.99 61.5297C321.359 61.0543 321.871 60.6393 322.527 60.2846C323.182 59.9224 324.048 59.7413 325.125 59.7413C326.525 59.7413 327.776 60.0959 328.875 60.8053C329.975 61.5146 330.837 62.5371 331.462 63.8728C332.094 65.2085 332.411 66.8158 332.411 68.6948C332.411 70.5738 332.098 72.1849 331.473 73.5281C330.848 74.8638 329.99 75.8938 328.898 76.6183C327.806 77.3352 326.559 77.6936 325.159 77.6936C324.104 77.6936 323.242 77.5163 322.572 77.1616C321.909 76.8069 321.389 76.3919 321.013 75.9165C320.636 75.4411 320.346 75.0185 320.143 74.6487H319.94V83.8739H316.562ZM319.872 68.6608C319.872 69.8833 320.049 70.9549 320.403 71.8755C320.757 72.7961 321.269 73.5168 321.939 74.0375C322.609 74.5506 323.43 74.8072 324.402 74.8072C325.411 74.8072 326.254 74.5393 326.932 74.0035C327.61 73.4602 328.122 72.7244 328.468 71.7963C328.822 70.8681 328.999 69.8229 328.999 68.6608C328.999 67.5138 328.826 66.4838 328.48 65.5707C328.141 64.6576 327.629 63.9369 326.943 63.4087C326.266 62.8805 325.418 62.6164 324.402 62.6164C323.423 62.6164 322.594 62.8692 321.917 63.3747C321.246 63.8803 320.738 64.5859 320.392 65.4914C320.045 66.397 319.872 67.4534 319.872 68.6608Z" fill="#6B7280"/>
    <path d="M343.504 77.7049C341.877 77.7049 340.457 77.3314 339.245 76.5843C338.033 75.8372 337.091 74.7921 336.421 73.4489C335.751 72.1057 335.416 70.5361 335.416 68.7401C335.416 66.9365 335.751 65.3594 336.421 64.0086C337.091 62.6579 338.033 61.6089 339.245 60.8619C340.457 60.1148 341.877 59.7413 343.504 59.7413C345.13 59.7413 346.55 60.1148 347.762 60.8619C348.975 61.6089 349.916 62.6579 350.586 64.0086C351.257 65.3594 351.592 66.9365 351.592 68.7401C351.592 70.5361 351.257 72.1057 350.586 73.4489C349.916 74.7921 348.975 75.8372 347.762 76.5843C346.55 77.3314 345.13 77.7049 343.504 77.7049ZM343.515 74.8638C344.569 74.8638 345.443 74.5846 346.136 74.0262C346.829 73.4677 347.341 72.7244 347.672 71.7963C348.011 70.8681 348.18 69.8456 348.18 68.7288C348.18 67.6195 348.011 66.6007 347.672 65.6726C347.341 64.7368 346.829 63.986 346.136 63.42C345.443 62.8541 344.569 62.5711 343.515 62.5711C342.453 62.5711 341.572 62.8541 340.872 63.42C340.179 63.986 339.663 64.7368 339.324 65.6726C338.993 66.6007 338.827 67.6195 338.827 68.7288C338.827 69.8456 338.993 70.8681 339.324 71.7963C339.663 72.7244 340.179 73.4677 340.872 74.0262C341.572 74.5846 342.453 74.8638 343.515 74.8638Z" fill="#6B7280"/>
    <path d="M367.121 67.2007V70.1323H357.723V67.2007H367.121ZM358.672 59.9677V77.354H355.362V59.9677H358.672ZM369.482 59.9677V77.354H366.184V59.9677H369.482Z" fill="#6B7280"/>
    <path d="M385.76 67.2007V70.1323H376.362V67.2007H385.76ZM377.31 59.9677V77.354H374.001V59.9677H377.31ZM388.121 59.9677V77.354H384.822V59.9677H388.121Z" fill="#6B7280"/>
    <path d="M395.181 65.9442H400.219C402.343 65.9442 403.977 66.4724 405.122 67.5289C406.267 68.5854 406.839 69.9475 406.839 71.6152C406.839 72.7018 406.583 73.679 406.071 74.5468C405.559 75.4147 404.809 76.1014 403.823 76.6069C402.836 77.105 401.635 77.354 400.219 77.354H392.639V59.9677H395.949V74.4337H400.219C401.191 74.4337 401.989 74.1809 402.614 73.6753C403.239 73.1621 403.552 72.5094 403.552 71.717C403.552 70.8794 403.239 70.1965 402.614 69.6682C401.989 69.1325 401.191 68.8646 400.219 68.8646H395.181V65.9442ZM409.301 77.354V59.9677H412.679V77.354H409.301Z" fill="#6B7280"/>
    <path d="M419.878 59.9677L423.707 66.7366L427.57 59.9677H431.264L425.853 68.6608L431.309 77.354H427.615L423.707 70.8568L419.81 77.354H416.105L421.504 68.6608L416.172 59.9677H419.878Z" fill="#6B7280"/>
    <path d="M445.286 83.8739C444.781 83.8739 444.322 83.8324 443.907 83.7494C443.493 83.6739 443.184 83.5909 442.981 83.5004L443.794 80.7272C444.412 80.8932 444.962 80.9649 445.444 80.9422C445.926 80.9196 446.351 80.7385 446.72 80.3989C447.097 80.0593 447.428 79.5047 447.714 78.735L448.132 77.5804L441.784 59.9677H445.399L449.793 73.4602H449.974L454.368 59.9677H457.994L450.843 79.6745C450.512 80.58 450.09 81.3459 449.578 81.9723C449.066 82.6062 448.456 83.0816 447.748 83.3985C447.04 83.7154 446.219 83.8739 445.286 83.8739Z" fill="#6B7280"/>
    <path d="M467.887 77.7049C466.207 77.7049 464.761 77.3238 463.549 76.5617C462.344 75.792 461.418 74.7317 460.77 73.381C460.122 72.0302 459.798 70.4832 459.798 68.7401C459.798 66.9743 460.13 65.416 460.793 64.0652C461.455 62.7069 462.389 61.6467 463.594 60.8845C464.799 60.1223 466.218 59.7413 467.853 59.7413C469.171 59.7413 470.345 59.9865 471.377 60.477C472.409 60.96 473.241 61.6391 473.874 62.5145C474.514 63.3898 474.894 64.4123 475.014 65.582H471.727C471.547 64.767 471.132 64.0652 470.485 63.4766C469.845 62.888 468.986 62.5937 467.909 62.5937C466.968 62.5937 466.143 62.8427 465.435 63.3408C464.735 63.8313 464.189 64.5331 463.797 65.4462C463.406 66.3517 463.21 67.4233 463.21 68.6608C463.21 69.9286 463.402 71.0228 463.786 71.9434C464.17 72.8641 464.712 73.5772 465.413 74.0828C466.121 74.5883 466.953 74.8411 467.909 74.8411C468.549 74.8411 469.129 74.7242 469.649 74.4902C470.176 74.2488 470.616 73.9054 470.97 73.4602C471.332 73.015 471.584 72.4792 471.727 71.8529H475.014C474.894 72.9772 474.529 73.9809 473.919 74.8638C473.309 75.7467 472.492 76.4409 471.467 76.9465C470.451 77.4521 469.257 77.7049 467.887 77.7049Z" fill="#6B7280"/>
    <path d="M477.26 77.354L477.248 74.4223H477.87C478.352 74.4223 478.754 74.3205 479.078 74.1167C479.41 73.9054 479.681 73.5508 479.892 73.0527C480.102 72.5547 480.264 71.868 480.377 70.9926C480.49 70.1097 480.573 69.0004 480.626 67.6647L480.931 59.9677H493.04V77.354H489.731V62.888H484.06L483.789 68.7967C483.721 70.2304 483.574 71.4831 483.348 72.5547C483.13 73.6262 482.81 74.5204 482.388 75.2373C481.966 75.9467 481.424 76.4787 480.761 76.8333C480.099 77.1805 479.293 77.354 478.344 77.354H477.26Z" fill="#6B7280"/>
    <path d="M499.058 83.8739C498.554 83.8739 498.095 83.8324 497.68 83.7494C497.266 83.6739 496.957 83.5909 496.754 83.5004L497.567 80.7272C498.185 80.8932 498.735 80.9649 499.217 80.9422C499.699 80.9196 500.124 80.7385 500.493 80.3989C500.87 80.0593 501.201 79.5047 501.487 78.735L501.905 77.5804L495.557 59.9677H499.171L503.566 73.4602H503.746L508.141 59.9677H511.767L504.616 79.6745C504.285 80.58 503.863 81.3459 503.351 81.9723C502.839 82.6062 502.229 83.0816 501.521 83.3985C500.813 83.7154 499.992 83.8739 499.058 83.8739Z" fill="#6B7280"/>
    <path d="M526.034 59.9677V62.888H518.273V77.354H514.941V59.9677H526.034Z" fill="#6B7280"/>
    <path d="M106.034 47.1333V8.49698H131.112V14.3641H113.019V24.8533H129.813V30.7204H113.019V41.2662H131.262V47.1333H106.034Z" fill="#3B82F6"/>
    <path d="M151.304 47.1333H138.238V8.49698H151.567C155.396 8.49698 158.684 9.27046 161.433 10.8174C164.194 12.3518 166.315 14.5591 167.796 17.4392C169.277 20.3193 170.018 23.7654 170.018 27.7774C170.018 31.8021 169.271 35.2607 167.778 38.1534C166.296 41.0461 164.156 43.2659 161.358 44.8129C158.571 46.3599 155.22 47.1333 151.304 47.1333ZM145.223 41.0775H150.965C153.651 41.0775 155.891 40.587 157.686 39.606C159.481 38.6125 160.83 37.1347 161.734 35.1727C162.638 33.1981 163.09 30.733 163.09 27.7774C163.09 24.8219 162.638 22.3693 161.734 20.4199C160.83 18.4579 159.494 16.9927 157.724 16.0243C155.967 15.0433 153.783 14.5528 151.172 14.5528H145.223V41.0775Z" fill="#3B82F6"/>
    <path d="M211.108 27.8152C211.108 31.9781 210.33 35.5437 208.773 38.5119C207.23 41.4674 205.121 43.7313 202.448 45.3034C199.787 46.8755 196.768 47.6616 193.392 47.6616C190.015 47.6616 186.991 46.8755 184.317 45.3034C181.656 43.7187 179.548 41.4486 177.991 38.493C176.447 35.5248 175.675 31.9656 175.675 27.8152C175.675 23.6522 176.447 20.0929 177.991 17.1373C179.548 14.1692 181.656 11.899 184.317 10.3269C186.991 8.75481 190.015 7.96875 193.392 7.96875C196.768 7.96875 199.787 8.75481 202.448 10.3269C205.121 11.899 207.23 14.1692 208.773 17.1373C210.33 20.0929 211.108 23.6522 211.108 27.8152ZM204.086 27.8152C204.086 24.8847 203.627 22.4134 202.711 20.4011C201.807 18.3762 200.552 16.8481 198.946 15.8168C197.339 14.7729 195.488 14.2509 193.392 14.2509C191.296 14.2509 189.444 14.7729 187.838 15.8168C186.231 16.8481 184.97 18.3762 184.054 20.4011C183.15 22.4134 182.698 24.8847 182.698 27.8152C182.698 30.7456 183.15 33.2232 184.054 35.2481C184.97 37.2604 186.231 38.7885 187.838 39.8324C189.444 40.8637 191.296 41.3794 193.392 41.3794C195.488 41.3794 197.339 40.8637 198.946 39.8324C200.552 38.7885 201.807 37.2604 202.711 35.2481C203.627 33.2232 204.086 30.7456 204.086 27.8152Z" fill="#3B82F6"/>
    <path d="M217.712 47.1333V8.49698H224.696V41.2662H241.678V47.1333H217.712Z" fill="#3B82F6"/>
    <path d="M272.07 20.835C271.756 19.8162 271.323 18.9044 270.771 18.0995C270.231 17.282 269.579 16.584 268.813 16.0054C268.06 15.4269 267.194 14.993 266.215 14.7037C265.236 14.4019 264.169 14.2509 263.014 14.2509C260.943 14.2509 259.098 14.7729 257.479 15.8168C255.86 16.8606 254.586 18.395 253.657 20.4199C252.741 22.4322 252.283 24.8847 252.283 27.7774C252.283 30.6953 252.741 33.1667 253.657 35.1915C254.573 37.2164 255.847 38.7571 257.479 39.8136C259.111 40.8575 261.006 41.3794 263.165 41.3794C265.123 41.3794 266.817 41.0021 268.248 40.2475C269.692 39.4929 270.802 38.4238 271.581 37.0404C272.359 35.6443 272.748 34.0093 272.748 32.1353L274.329 32.3806H263.861V26.9096H279.507V31.5505C279.507 34.8583 278.804 37.7195 277.398 40.1343C275.992 42.5491 274.059 44.4104 271.599 45.7184C269.139 47.0139 266.315 47.6616 263.127 47.6616C259.575 47.6616 256.456 46.8629 253.77 45.2657C251.097 43.6558 249.007 41.3731 247.501 38.4175C246.007 35.4494 245.26 31.9278 245.26 27.8529C245.26 24.7338 245.7 21.948 246.578 19.4955C247.469 17.043 248.712 14.9615 250.306 13.2511C251.9 11.528 253.77 10.22 255.916 9.32706C258.063 8.42152 260.397 7.96875 262.92 7.96875C265.054 7.96875 267.043 8.28317 268.888 8.91202C270.733 9.52829 272.371 10.4087 273.802 11.5532C275.246 12.6977 276.432 14.056 277.36 15.6281C278.289 17.2002 278.898 18.9358 279.187 20.835H272.07Z" fill="#3B82F6"/>
    <path d="M293.246 8.49698V47.1333H286.261V8.49698H293.246Z" fill="#3B82F6"/>
    <path d="M304.707 47.5484C303.565 47.5484 302.586 47.1459 301.77 46.341C300.954 45.5361 300.552 44.5551 300.565 43.398C300.552 42.2661 300.954 41.2976 301.77 40.4927C302.586 39.6878 303.565 39.2853 304.707 39.2853C305.811 39.2853 306.771 39.6878 307.587 40.4927C308.416 41.2976 308.836 42.2661 308.849 43.398C308.836 44.1652 308.635 44.8632 308.246 45.4921C307.87 46.1209 307.368 46.624 306.74 47.0013C306.125 47.366 305.447 47.5484 304.707 47.5484Z" fill="#3B82F6"/>
    <path d="M316.187 47.1333V8.49698H330.646C333.608 8.49698 336.093 9.01264 338.101 10.0439C340.122 11.0753 341.647 12.5216 342.676 14.383C343.718 16.2318 344.239 18.3887 344.239 20.8538C344.239 23.3315 343.712 25.4821 342.657 27.3058C341.616 29.1169 340.078 30.5192 338.045 31.5128C336.011 32.4938 333.514 32.9843 330.552 32.9843H320.253V27.1737H329.61C331.342 27.1737 332.761 26.9348 333.865 26.4569C334.97 25.9664 335.786 25.2558 336.313 24.3251C336.852 23.3818 337.122 22.2247 337.122 20.8538C337.122 19.4829 336.852 18.3133 336.313 17.3449C335.773 16.3639 334.951 15.6218 333.846 15.1187C332.742 14.6031 331.317 14.3453 329.573 14.3453H323.171V47.1333H316.187ZM336.106 29.6262L345.651 47.1333H337.857L328.481 29.6262H336.106Z" fill="#3B82F6"/>
    <path d="M374.974 8.49698H381.959V33.7389C381.959 36.5058 381.306 38.9395 380.001 41.0398C378.708 43.1402 376.888 44.7815 374.541 45.9637C372.194 47.1333 369.451 47.7182 366.314 47.7182C363.163 47.7182 360.414 47.1333 358.067 45.9637C355.72 44.7815 353.9 43.1402 352.608 41.0398C351.315 38.9395 350.668 36.5058 350.668 33.7389V8.49698H357.653V33.1541C357.653 34.7639 358.005 36.1977 358.707 37.4554C359.423 38.7131 360.427 39.7004 361.72 40.4173C363.013 41.1216 364.544 41.4737 366.314 41.4737C368.083 41.4737 369.615 41.1216 370.907 40.4173C372.213 39.7004 373.217 38.7131 373.92 37.4554C374.623 36.1977 374.974 34.7639 374.974 33.1541V8.49698Z" fill="#3B82F6"/>
    <defs>
        <clipPath id="clip0_45_3155">
            <rect x="10.6035" y="10.625" width="63.6204" height="63.75" rx="4" fill="white"/>
        </clipPath>
    </defs>
</svg>
